<svg id="Capa_1" enable-background="new 0 0 512 512" height="512" viewBox="0 0 512 512" width="512" xmlns="http://www.w3.org/2000/svg"><g><path d="m422.154 79.196h-69.768v-25.152c0-29.8-24.244-54.044-54.044-54.044h-84.684c-29.8 0-54.044 24.244-54.044 54.044v25.152h-69.768c-19.232 0-34.879 15.646-34.879 34.879v31.789c0 10.174 8.277 18.451 18.452 18.451h10.934l6.112 97.029c.251 3.974 3.551 7.028 7.478 7.028.159 0 .318-.005.479-.015 4.134-.261 7.274-3.823 7.014-7.957l-6.053-96.086h313.235l-19.138 303.792c-1.021 16.203-14.537 28.894-30.77 28.894h-213.42c-16.233 0-29.749-12.691-30.769-28.893l-10.969-174.122c-.26-4.134-3.822-7.267-7.957-7.014-4.134.261-7.274 3.823-7.014 7.957l10.969 174.122c1.517 24.085 21.608 42.95 45.74 42.95h213.42c24.132 0 44.223-18.865 45.74-42.949l19.197-304.735h10.934c10.174 0 18.452-8.277 18.452-18.451v-31.789c0-19.233-15.647-34.88-34.879-34.88zm-247.54-25.152c0-21.529 17.515-39.044 39.044-39.044h84.684c21.529 0 39.044 17.515 39.044 39.044v25.152h-23.331v-25.152c0-8.664-7.049-15.713-15.714-15.713h-43.498c-4.142 0-7.5 3.357-7.5 7.5 0 4.142 3.358 7.5 7.5 7.5h43.498c.387 0 .714.326.714.713v25.152h-86.111v-25.152c0-.387.327-.713.714-.713h8.498c4.142 0 7.5-3.358 7.5-7.5 0-4.143-3.358-7.5-7.5-7.5h-8.498c-8.665 0-15.714 7.049-15.714 15.713v25.152h-23.331v-25.152zm267.419 91.82c0 1.903-1.548 3.451-3.452 3.451h-365.162c-1.903 0-3.452-1.548-3.452-3.451v-31.789c0-10.961 8.918-19.879 19.879-19.879h332.308c10.961 0 19.879 8.918 19.879 19.879z"/><path d="m281 452.304v-243.5c0-13.785-11.215-25-25-25s-25 11.215-25 25v243.5c0 13.785 11.215 25 25 25s25-11.215 25-25zm-35 0v-243.5c0-5.514 4.486-10 10-10s10 4.486 10 10v243.5c0 5.514-4.486 10-10 10s-10-4.487-10-10z"/><path d="m180.749 477.305c.688 0 1.383-.028 2.066-.085 13.739-1.128 23.998-13.224 22.87-26.963l-20-243.5c-1.128-13.721-13.218-23.985-26.962-22.869-13.739 1.128-23.998 13.224-22.87 26.963l20 243.5c1.057 12.871 11.992 22.954 24.896 22.954zm-20.809-278.467c.274-.023.546-.033.816-.033 5.156 0 9.551 3.966 9.979 9.181l20 243.5c.451 5.495-3.653 10.334-9.149 10.785-5.516.457-10.339-3.723-10.785-9.148l-20-243.5c-.451-5.496 3.653-10.335 9.139-10.785z"/><path d="m325.267 402.766c.339-4.129-2.732-7.75-6.861-8.089-4.119-.349-7.749 2.732-8.088 6.86l-4.002 48.72c-1.128 13.739 9.131 25.835 22.87 26.963.685.057 1.38.085 2.066.085 12.903 0 23.839-10.083 24.896-22.954l20-243.5c1.128-13.739-9.131-25.835-22.872-26.963-13.746-1.128-25.832 9.134-26.961 22.869l-13.28 161.682c-.339 4.129 2.732 7.75 6.861 8.089 4.119.34 7.749-2.732 8.088-6.86l13.28-161.682c.451-5.494 5.284-9.588 10.786-9.148 5.495.451 9.599 5.29 9.148 10.785l-20 243.5c-.446 5.427-5.265 9.601-10.786 9.148-5.495-.451-9.599-5.29-9.148-10.785z"/></g></svg>