<?xml version="1.0" standalone="no"?>
<svg xmlns="http://www.w3.org/2000/svg" version="1.1" id="Capa_1" enable-background="new 0 0 512 512" height="512" viewBox="0 0 512 512" width="512"><g><path d="m245.932 190.794h130c4.143 0 7.5-3.358 7.5-7.5s-3.357-7.5-7.5-7.5h-130c-4.143 0-7.5 3.358-7.5 7.5s3.357 7.5 7.5 7.5z"/><path d="m186.991 167.276-16.099 15.492-1.979-4c-1.837-3.713-6.335-5.234-10.048-3.396-3.713 1.837-5.233 6.336-3.396 10.048l6.521 13.18c2.253 4.557 8.284 5.579 11.922 2.078l23.479-22.594c2.985-2.872 3.076-7.62.204-10.605-2.872-2.983-7.619-3.074-10.604-.203z"/><path d="m224.973 153.96c0-9.539-7.761-17.3-17.3-17.3h-60.983c-9.539 0-17.3 7.761-17.3 17.3v60.982c0 9.539 7.761 17.3 17.3 17.3h60.982c9.539 0 17.3-7.761 17.3-17.3v-60.982zm-15 60.982c0 1.268-1.031 2.3-2.3 2.3h-60.983c-1.269 0-2.3-1.032-2.3-2.3v-60.982c0-1.268 1.031-2.3 2.3-2.3h60.982c1.269 0 2.3 1.032 2.3 2.3v60.982z"/><path d="m245.932 301.345h130c4.143 0 7.5-3.358 7.5-7.5s-3.357-7.5-7.5-7.5h-130c-4.143 0-7.5 3.358-7.5 7.5s3.357 7.5 7.5 7.5z"/><path d="m186.991 277.828-16.099 15.492-1.979-4c-1.837-3.713-6.335-5.234-10.048-3.396-3.713 1.837-5.233 6.336-3.396 10.048l6.521 13.18c2.238 4.527 8.258 5.605 11.922 2.078l23.479-22.594c2.985-2.872 3.076-7.62.204-10.605-2.872-2.984-7.619-3.074-10.604-.203z"/><path d="m224.973 264.511c0-9.54-7.761-17.3-17.3-17.3h-60.983c-9.539 0-17.3 7.761-17.3 17.3v60.982c0 9.539 7.761 17.3 17.3 17.3h60.982c9.539 0 17.3-7.761 17.3-17.3v-60.982zm-15 60.983c0 1.268-1.031 2.3-2.3 2.3h-60.983c-1.269 0-2.3-1.032-2.3-2.3v-60.982c0-1.269 1.031-2.3 2.3-2.3h60.982c1.269 0 2.3 1.032 2.3 2.3v60.982z"/><path d="m245.932 411.896h130c4.143 0 7.5-3.358 7.5-7.5s-3.357-7.5-7.5-7.5h-130c-4.143 0-7.5 3.358-7.5 7.5s3.357 7.5 7.5 7.5z"/><path d="m186.991 388.378-16.099 15.492-1.979-4c-1.837-3.713-6.335-5.233-10.048-3.396s-5.233 6.336-3.396 10.048l6.521 13.18c2.238 4.527 8.258 5.605 11.922 2.078l23.479-22.594c2.985-2.872 3.076-7.62.204-10.605-2.872-2.983-7.619-3.074-10.604-.203z"/><path d="m207.673 357.762h-60.983c-9.539 0-17.3 7.761-17.3 17.3v60.982c0 9.539 7.761 17.3 17.3 17.3h60.982c9.539 0 17.3-7.761 17.3-17.3v-60.982c.001-9.539-7.76-17.3-17.299-17.3zm2.3 78.283c0 1.268-1.031 2.3-2.3 2.3h-60.983c-1.269 0-2.3-1.032-2.3-2.3v-60.982c0-1.269 1.031-2.3 2.3-2.3h60.982c1.269 0 2.3 1.032 2.3 2.3v60.982z"/><path d="m418.594 43.254h-57.432c-1.703-7.297-8.247-12.754-16.055-12.754h-36.607v-1.653c0-15.906-12.94-28.847-28.847-28.847h-47.307c-15.906 0-28.846 12.941-28.846 28.847v1.653h-36.607c-7.808 0-14.351 5.457-16.055 12.754h-57.432c-15.163 0-27.5 12.336-27.5 27.5v71.596c0 4.142 3.357 7.5 7.5 7.5s7.5-3.358 7.5-7.5v-71.596c0-6.893 5.607-12.5 12.5-12.5h56.986v15h-41.986c-6.893 0-12.5 5.607-12.5 12.5v383.746c0 6.893 5.607 12.5 12.5 12.5h243.564c4.143 0 7.5-3.358 7.5-7.5s-3.357-7.5-7.5-7.5h-241.064v-378.746h39.486v18.251c0 9.098 7.402 16.5 16.5 16.5h178.215c9.098 0 16.5-7.402 16.5-16.5v-18.251h39.486v378.746h-14.123c-4.143 0-7.5 3.358-7.5 7.5s3.357 7.5 7.5 7.5h16.623c6.893 0 12.5-5.607 12.5-12.5v-383.746c0-6.893-5.607-12.5-12.5-12.5h-41.986v-15h56.986c6.893 0 12.5 5.607 12.5 12.5v413.746c0 6.893-5.607 12.5-12.5 12.5h-325.187c-6.893 0-12.5-5.607-12.5-12.5v-307.15c0-4.142-3.357-7.5-7.5-7.5s-7.5 3.358-7.5 7.5v307.15c0 15.164 12.337 27.5 27.5 27.5h325.188c15.163 0 27.5-12.336 27.5-27.5v-413.746c0-15.164-12.337-27.5-27.5-27.5zm-71.987 63.251c0 .827-.673 1.5-1.5 1.5h-178.214c-.827 0-1.5-.673-1.5-1.5 0-24.736 0-29.663 0-59.505 0-.827.673-1.5 1.5-1.5h44.107c4.143 0 7.5-3.358 7.5-7.5v-9.153c0-7.635 6.212-13.847 13.847-13.847h47.307c7.635 0 13.847 6.212 13.847 13.847v9.153c0 4.142 3.357 7.5 7.5 7.5h44.107c.827 0 1.5.673 1.5 1.5-.001 8.679-.001 51.016-.001 59.505z"/></g></svg>