<svg id="Capa_1" enable-background="new 0 0 512 512" height="512" viewBox="0 0 512 512" width="512" xmlns="http://www.w3.org/2000/svg"><g><path d="m182.106 277.384h41.647c7.995 0 14.5-6.505 14.5-14.5v-41.647c0-7.995-6.505-14.5-14.5-14.5h-41.647c-7.995 0-14.5 6.505-14.5 14.5v41.647c0 7.995 6.505 14.5 14.5 14.5zm.5-55.647h40.647v40.647h-40.647z"/><path d="m288.246 277.384h41.647c7.995 0 14.5-6.505 14.5-14.5v-41.647c0-7.995-6.505-14.5-14.5-14.5h-41.647c-7.995 0-14.5 6.505-14.5 14.5v41.647c0 7.995 6.505 14.5 14.5 14.5zm.5-55.647h40.647v40.647h-40.647z"/><path d="m394.385 277.384h41.647c7.995 0 14.5-6.505 14.5-14.5v-41.647c0-7.995-6.505-14.5-14.5-14.5h-41.647c-7.995 0-14.5 6.505-14.5 14.5v41.647c0 7.995 6.505 14.5 14.5 14.5zm.5-55.647h40.647v40.647h-40.647z"/><path d="m61.468 448.598c0 7.995 6.505 14.5 14.5 14.5h41.647c7.995 0 14.5-6.505 14.5-14.5v-41.648c0-7.995-6.505-14.5-14.5-14.5h-41.647c-7.995 0-14.5 6.505-14.5 14.5zm15-41.148h40.647v40.648h-40.647z"/><path d="m167.606 448.598c0 7.995 6.505 14.5 14.5 14.5h41.647c7.995 0 14.5-6.505 14.5-14.5v-41.648c0-7.995-6.505-14.5-14.5-14.5h-41.647c-7.995 0-14.5 6.505-14.5 14.5zm15-41.148h40.647v40.648h-40.647z"/><path d="m273.746 448.598c0 7.995 6.505 14.5 14.5 14.5h41.647c7.995 0 14.5-6.505 14.5-14.5v-41.648c0-7.995-6.505-14.5-14.5-14.5h-41.647c-7.995 0-14.5 6.505-14.5 14.5zm15-41.148h40.647v40.648h-40.647z"/><path d="m379.885 448.598c0 7.995 6.505 14.5 14.5 14.5h41.647c7.995 0 14.5-6.505 14.5-14.5v-41.648c0-7.995-6.505-14.5-14.5-14.5h-41.647c-7.995 0-14.5 6.505-14.5 14.5zm15-41.148h40.647v40.648h-40.647z"/><path d="m75.968 370.241h41.647c7.995 0 14.5-6.505 14.5-14.5v-41.648c0-7.995-6.505-14.5-14.5-14.5h-41.647c-7.995 0-14.5 6.505-14.5 14.5v41.648c0 7.995 6.505 14.5 14.5 14.5zm.5-55.648h40.647v40.648h-40.647z"/><path d="m167.606 355.741c0 7.995 6.505 14.5 14.5 14.5h41.647c7.995 0 14.5-6.505 14.5-14.5v-41.648c0-7.995-6.505-14.5-14.5-14.5h-41.647c-7.995 0-14.5 6.505-14.5 14.5zm15-41.148h40.647v40.648h-40.647z"/><path d="m273.746 355.741c0 7.995 6.505 14.5 14.5 14.5h41.647c7.995 0 14.5-6.505 14.5-14.5v-41.648c0-7.995-6.505-14.5-14.5-14.5h-41.647c-7.995 0-14.5 6.505-14.5 14.5zm15-41.148h40.647v40.648h-40.647z"/><path d="m379.885 355.741c0 7.995 6.505 14.5 14.5 14.5h41.647c7.995 0 14.5-6.505 14.5-14.5v-41.648c0-7.995-6.505-14.5-14.5-14.5h-41.647c-7.995 0-14.5 6.505-14.5 14.5zm15-41.148h40.647v40.648h-40.647z"/><path d="m504.5 117.416c4.143 0 7.5-3.358 7.5-7.5v-16.749c0-20.678-16.822-37.5-37.5-37.5h-22.867v-39.686c0-6.699-5.45-12.149-12.149-12.149h-33.702c-6.699 0-12.149 5.45-12.149 12.149v39.686h-53.088v-39.686c0-6.699-5.45-12.149-12.148-12.149h-33.703c-6.698 0-12.148 5.45-12.148 12.149v39.686h-53.088v-39.686c0-6.699-5.45-12.149-12.148-12.149h-33.703c-6.698 0-12.148 5.45-12.148 12.149v39.686h-53.088v-39.686c0-6.699-5.45-12.149-12.149-12.149h-33.705c-6.699 0-12.149 5.45-12.149 12.149v39.686h-22.868c-20.678 0-37.5 16.823-37.5 37.5v281.643c0 4.142 3.357 7.5 7.5 7.5s7.5-3.358 7.5-7.5v-198.143h482v294c0 12.407-10.094 22.5-22.5 22.5h-437c-12.406 0-22.5-10.093-22.5-22.5v-60.857c0-4.142-3.357-7.5-7.5-7.5s-7.5 3.358-7.5 7.5v60.857c0 20.678 16.822 37.5 37.5 37.5h437c20.678 0 37.5-16.822 37.5-37.5 0-12.057 0-314.78 0-325.752 0-4.142-3.357-7.5-7.5-7.5s-7.5 3.358-7.5 7.5v16.752h-482v-68.5c0-12.407 10.094-22.5 22.5-22.5h22.867v24.165c0 15.99 13.009 29 29 29s0 0 0 0c15.991 0 29-13.01 29-29v-24.165h53.088v24.165c0 15.991 13.01 29 29 29s29-13.009 29-29v-24.165h53.088v24.165c0 15.986 13.017 29 29 29 15.99 0 29-13.009 29-29v-24.165h53.088v24.165c0 15.991 13.01 29 29.001 29 15.99 0 29-13.009 29-29v-24.165h22.868c12.406 0 22.5 10.093 22.5 22.5v16.748c0 4.143 3.357 7.501 7.5 7.501zm-429.133-98.583h28.001v76c0 7.72-6.281 14-14.001 14s-14-6.28-14-14c0-13.952 0-61.727 0-76zm139.089 76c0 7.72-6.28 14-14 14s-14-6.28-14-14c0-13.952 0-61.726 0-76h28zm111.088 0c0 7.72-6.28 14-14 14-7.738 0-14-6.303-14-14 0-51.423 0-23.081 0-76h28zm111.089 0c0 7.72-6.28 14-14 14s-14-6.28-14-14c0-7.298-.001-44.92-.001-76h28.001z"/></g></svg>